Coordinates
version=1
nRows=14
nColumns=24
inDegrees=yes

Units are S.I. units (second, meters, Newtons, ...)
Angles are in degrees.

endheader
time	pelvis_tilt	pelvis_list	pelvis_rotation	pelvis_tx	pelvis_ty	pelvis_tz	hip_flexion_r	hip_adduction_r	hip_rotation_r	knee_angle_r	ankle_angle_r	subtalar_angle_r	mtp_angle_r	hip_flexion_l	hip_adduction_l	hip_rotation_l	knee_angle_l	ankle_angle_l	subtalar_angle_l	mtp_angle_l	lumbar_extension	lumbar_bending	lumbar_rotation
      0.50300000	     -0.76021622	      4.69506525	      3.28019611	     -0.75344948	      0.97896247	      0.28813190	     27.40844165	     -3.08598460	     -2.01391198	    -13.06660964	      7.65374329	     -5.72989699	      0.50309773	    -14.26496286	      9.36140949	      3.35390349	     -6.41143991	     11.93391512	     -3.96000684	      0.12705045	     -0.91416734	     -3.05374138	     -0.80133167
      0.50716667	     -0.81373503	      4.63538834	      3.30997774	     -0.74755066	      0.97831609	      0.28826948	     27.32164355	     -2.96752943	     -2.11410400	    -12.95343179	      7.34462251	     -5.80102313	      3.55111467	    -14.22625149	      9.26323100	      3.22089996	     -7.09003987	     12.10814946	     -3.65762427	     -0.78157565	     -0.80385358	     -2.98057321	     -0.83199025
      0.51133333	     -0.85657980	      4.60857794	      3.33309779	     -0.74165873	      0.97771657	      0.28839043	     27.24519117	     -2.88489262	     -2.20885864	    -12.95769939	      7.03246099	     -5.65915336	      3.57240939	    -14.19053296	      9.20852133	      3.19399154	     -7.77960246	     12.21507596	     -3.52112283	     -0.76152431	     -0.72440615	     -2.94696805	     -0.85773381
      0.51550000	     -0.88740737	      4.56301509	      3.34270997	     -0.73569913	      0.97716079	      0.28854347	     27.15067012	     -2.77723533	     -2.28786600	    -13.02466403	      6.73146542	     -5.56379307	      3.62884364	    -14.11936861	      9.12586251	      3.02183727	     -8.56110619	     12.33226158	     -3.22243178	     -0.71177547	     -0.62741551	     -2.90355350	     -0.90256784
      0.51966667	     -0.93067460	      4.50946114	      3.33046795	     -0.72973041	      0.97659818	      0.28872338	     27.09022932	     -2.65139111	     -2.32311974	    -13.19008828	      6.40223078	     -5.54209670	      3.73431459	    -14.00594845	      9.04112492	      2.84782797	     -9.39445967	     12.43829731	     -2.93784543	     -0.61583749	     -0.53083826	     -2.82723137	     -0.92449808
      0.52383333	     -0.97651719	      4.46505584	      3.32673275	     -0.72373902	      0.97609083	      0.28887599	     27.02523093	     -2.54261111	     -2.35162848	    -13.39508269	      5.96445916	     -5.49898973	      3.77829882	    -13.88817746	      8.97535604	      2.82218265	    -10.22894536	     12.44146011	     -2.88176696	     -0.56726945	     -0.43088869	     -2.76566971	     -0.91285211
      0.52800000	     -1.04480273	      4.42322535	      3.31914356	     -0.71772637	      0.97558494	      0.28907455	     26.97518928	     -2.42991849	     -2.31883200	    -13.62897801	      5.56735562	     -5.48113238	      3.89535989	    -13.66817165	      8.89567651	      2.62044461	    -11.21114104	     12.47283597	     -2.52116738	     -0.43879695	     -0.28447101	     -2.72463577	     -0.92270090
      0.53216667	     -1.06338733	      4.36011063	      3.27622668	     -0.71167255	      0.97516989	      0.28927648	     26.90155910	     -2.29081380	     -2.31298729	    -13.96218205	      5.08082268	     -5.48212703	      3.96781103	    -13.51702168	      8.80999137	      2.51260135	    -12.15092140	     12.41558328	     -2.39708951	     -0.34727639	     -0.21027426	     -2.62665342	     -0.90351578
      0.53633333	     -1.11940912	      4.30000119	      3.23379260	     -0.70562870	      0.97472280	      0.28954881	     26.85954744	     -2.14371173	     -2.21278886	    -14.31597173	      4.72298323	     -5.59515446	      4.17737039	    -13.22826168	      8.70301096	      2.21162872	    -13.27788883	     12.41665858	     -1.93186809	     -0.07426395	     -0.08001499	     -2.55849505	     -0.88405795
      0.54050000	     -1.15751983	      4.23139192	      3.18275784	     -0.69956429	      0.97434430	      0.28981762	     26.79728868	     -1.98864385	     -2.10932348	    -14.69030269	      4.25409217	     -5.71626749	      4.43044943	    -12.94519329	      8.59379745	      1.98982016	    -14.41898254	     12.32054800	     -1.62670586	      0.29580328	      0.02814551	     -2.47088578	     -0.83626226
      0.54466667	     -1.19696616	      4.16729737	      3.12137411	     -0.69349666	      0.97398539	      0.29009918	     26.75116191	     -1.83811515	     -1.99777238	    -15.11749961	      3.80342006	     -5.83291142	      4.69668115	    -12.63030809	      8.49014432	      1.77890554	    -15.60792262	     12.16324789	     -1.35065939	      0.73750044	      0.13780933	     -2.38429228	     -0.77455096
      0.54883333	     -1.23397882	      4.10170645	      3.07282818	     -0.68741778	      0.97369601	      0.29036726	     26.67909922	     -1.69270822	     -1.86990827	    -15.51220609	      3.29519383	     -5.90291067	      4.86725286	    -12.28299853	      8.38241852	      1.61686678	    -16.85328237	     11.89696187	     -1.14791170	      1.06907069	      0.25257752	     -2.30689057	     -0.71261857
      0.55300000	     -1.24054295	      4.01271786	      2.98081999	     -0.68131924	      0.97342881	      0.29071150	     26.61394587	     -1.50888425	     -1.74061125	    -16.00270599	      2.85216546	     -6.14569895	      7.18675136	    -11.92767201	      8.23766782	      1.33144864	    -18.15015738	     11.50734947	     -0.91258353	      6.16908829	      0.32470882	     -2.17912190	     -0.63765098
      0.55716667	     -1.27890268	      3.93567958	      2.91066521	     -0.67525815	      0.97316518	      0.29102656	     26.57884410	     -1.34927843	     -1.60586590	    -16.49667603	      2.44903642	     -6.21764816	      7.18823710	    -11.48535126	      8.10754303	      1.11887124	    -19.54439386	     11.14012680	     -0.66207430	      6.22471715	      0.43785242	     -2.08575037	     -0.56135826
